<?xml version="1.0" encoding="UTF-8"?>
<svg width="720px" height="720px" viewBox="0 0 720 720" version="1.1" xmlns="http://www.w3.org/2000/svg" xmlns:xlink="http://www.w3.org/1999/xlink">
    <!-- Generator: Sketch 61 (89581) - https://sketch.com -->
    <title>Page 1</title>
    <desc>Created with Sketch.</desc>
    <g id="Page-1" stroke="none" stroke-width="1" fill="none" fill-rule="evenodd">
        <circle id="Oval" stroke="#979797" fill="#000000" cx="360" cy="360" r="359.5"></circle>
        <g id="Group" transform="translate(180.000000, 121.000000)" fill="#FF004F" fill-rule="nonzero">
            <path d="M408,120.117241 L408,202.213793 C403.62766,202.213793 398.380851,203.096552 393.134043,203.096552 C353.782979,203.096552 317.055319,188.089655 289.07234,164.255172 L289.07234,339.041379 C289.07234,374.351724 277.704255,407.896552 257.591489,434.37931 C229.608511,472.337931 184.13617,497.937931 132.542553,497.937931 C76.5765957,497.937931 27.606383,467.924138 0.49787234,423.786207 C28.4808511,450.268966 66.0829787,467.041379 107.182979,467.041379 C157.902128,467.041379 203.374468,442.324138 231.357447,403.482759 C250.595745,377 262.838298,344.337931 262.838298,308.144828 L262.838298,132.475862 C290.821277,157.193103 326.674468,171.317241 366.9,171.317241 C372.146809,171.317241 376.519149,171.317241 381.765957,170.434483 L381.765957,117.468966 C389.63617,119.234483 396.631915,120.117241 404.502128,120.117241 L408,120.117241 Z" id="Path"></path>
            <path d="M154.404255,181.027586 L154.404255,271.951724 C148.282979,270.186207 141.287234,269.303448 135.165957,269.303448 C96.6893617,269.303448 65.2085106,301.965517 65.2085106,341.689655 C65.2085106,350.517241 66.9574468,358.462069 69.5808511,366.406897 C52.0914894,353.165517 39.8489362,331.97931 39.8489362,308.144828 C39.8489362,268.42069 71.3297872,235.758621 109.806383,235.758621 C116.802128,235.758621 122.923404,236.641379 129.044681,238.406897 L129.044681,180.144828 C130.793617,180.144828 132.542553,180.144828 134.291489,180.144828 C141.287234,180.144828 148.282979,180.144828 154.404255,181.027586 Z" id="Path"></path>
            <path d="M302.189362,54.7931034 C286.448936,40.6689655 275.080851,21.2482759 268.959574,0.944827586 L289.946809,0.944827586 C289.946809,5.35862069 289.946809,8.88965517 289.946809,13.3034483 C291.695745,27.4275862 296.068085,41.5517241 302.189362,54.7931034 Z" id="Path"></path>
        </g>
        <path d="M563,238.63447 L563,291.702652 C558.62635,292.587121 553.37797,292.587121 548.12959,292.587121 C508.766739,292.587121 472.028078,277.551136 444.036717,253.670455 L444.036717,428.795455 C444.036717,464.174242 432.665227,497.784091 412.546436,524.318182 C383.680346,563.234848 339.069114,588 288.334773,588 C247.222462,588 209.609071,571.195076 181.617711,544.660985 C166.7473,519.895833 158,491.592803 158,460.636364 C158,374.842803 225.354212,304.969697 309.328294,302.316288 L309.328294,360.691288 C303.205184,358.922348 296.207343,358.037879 290.084233,358.037879 C251.596112,358.037879 220.105832,390.763258 220.105832,430.564394 C220.105832,454.445076 231.477322,476.556818 249.846652,488.939394 C259.468683,516.357955 285.710583,536.700758 315.451404,536.700758 C353.939525,536.700758 385.429806,503.975379 385.429806,464.174242 L385.429806,121 L449.285097,121 C455.408207,142.227273 466.779698,160.801136 482.524838,174.952652 C498.269978,206.793561 528.010799,230.674242 563,238.63447 Z" id="Path" fill="#FFFFFF" fill-rule="nonzero"></path>
        <g id="Group" transform="translate(133.000000, 87.000000)" fill="#00F7EF" fill-rule="nonzero">
            <path d="M176.076,183.6 L176.076,213.611538 C91.98,216.259615 24.528,285.992308 24.528,371.613462 C24.528,402.507692 33.288,430.753846 48.18,455.469231 C18.396,426.340385 0,385.736538 0,339.836538 C0,252.45 70.08,181.834615 155.928,181.834615 C162.936,181.834615 169.944,182.717308 176.076,183.6 Z" id="Path"></path>
            <path d="M316.236,34.425 L252.288,34.425 L252.288,375.144231 C252.288,414.865385 220.752,447.525 182.208,447.525 C151.548,447.525 126.144,428.105769 116.508,399.859615 C127.896,407.803846 141.912,413.1 156.804,413.1 C195.348,413.1 226.884,381.323077 226.884,341.601923 L226.884,0 L311.856,0 L311.856,1.76538462 C311.856,5.29615385 311.856,8.82692308 312.732,12.3576923 C312.732,19.4192308 314.484,27.3634615 316.236,34.425 Z" id="Path"></path>
        </g>
        <path d="M563.116,206.163462 C563.116,206.163462 563.116,206.163462 563.116,206.163462 L563.116,237.940385 C528.076,230.878846 498.292,207.046154 481.648,175.269231 C503.548,195.571154 531.58,207.046154 563.116,206.163462 Z" id="Path" fill="#00F7EF" fill-rule="nonzero"></path>
    </g>
</svg>